<svg xmlns="http://www.w3.org/2000/svg" viewBox="0 0 100 100" fill="currentColor"><path d="M50 77.73C52.43 77.73 54.86 78.18 57.18 79.08L81.04 88.37C83.23 89.22 85.67 88.66 87.28 86.95L87.8 86.39C89.51 84.56 89.84 81.87 88.61 79.7L74.16 53.96C72.75 51.47 72.67 48.44 73.92 45.87L86.91 19.26C87.3 18.47 87.49 17.63 87.49 16.76C87.49 14.96 86.67 13.31 85.24 12.22C83.65 11 81.5 10.71 79.64 11.47L57.44 20.48C52.64 22.43 47.36 22.43 42.56 20.48L20.36 11.47C18.5 10.71 16.35 11 14.76 12.22C13.32 13.31 12.5 14.96 12.5 16.76C12.5 17.63 12.7 18.47 13.09 19.26L26.08 45.87C27.33 48.44 27.25 51.47 25.84 53.96L11.39 79.69C10.16 81.87 10.49 84.56 12.2 86.39L12.72 86.95C14.33 88.66 16.77 89.22 18.96 88.37L42.82 79.08C45.14 78.18 47.57 77.73 50 77.73M83.13 91.77C82.06 91.77 80.99 91.57 79.95 91.17L56.09 81.88C52.16 80.35 47.84 80.35 43.91 81.88L20.05 91.17C16.71 92.47 12.97 91.62 10.53 89.01L10 88.45C7.39 85.66 6.9 81.55 8.77 78.22L23.22 52.49C24.14 50.85 24.2 48.87 23.38 47.19L10.38 20.58C9.8 19.39 9.5 18.07 9.5 16.76C9.5 14.06 10.78 11.46 12.93 9.83C15.37 7.97 18.65 7.53 21.49 8.68L43.69 17.7C47.76 19.35 52.24 19.35 56.31 17.7L78.51 8.68C81.35 7.53 84.63 7.97 87.07 9.83C89.22 11.46 90.5 14.06 90.5 16.76C90.5 18.09 90.2 19.38 89.62 20.58L76.62 47.19C75.8 48.87 75.86 50.85 76.78 52.49L91.23 78.22C93.1 81.55 92.61 85.66 90 88.45L90 88.45L89.47 89.01C87.78 90.81 85.49 91.77 83.13 91.77"/><path d="M50 44.94C47.27 44.94 45.04 47.17 45.04 49.9C45.04 52.64 47.27 54.86 50 54.86C52.73 54.86 54.96 52.64 54.96 49.9C54.96 47.17 52.73 44.94 50 44.94M50 57.87C45.61 57.87 42.03 54.3 42.03 49.9C42.03 45.51 45.61 41.94 50 41.94C54.39 41.94 57.97 45.51 57.97 49.9C57.97 54.3 54.39 57.87 50 57.87"/></svg>
